<svg width="24" height="24" viewBox="0 0 24 24" fill="none" xmlns="http://www.w3.org/2000/svg">
  <path d="M12.3 2.2C13.1 4.8 11.2 6.1 10.5 7.4C9.7 8.9 10.1 10.9 11.8 12.1C9.2 12 7.2 9.8 7.2 7.1C7.2 4.8 8.9 3 10.8 2C11.4 1.7 12.1 1.7 12.3 2.2Z" fill="rgba(255,250,240,0.92)"/>
  <path d="M16.9 5.7C17.9 7.3 17.3 8.7 16.7 9.7C16 11.1 15.9 12.9 17.2 14.2C18.1 15.1 18.7 16.4 18.7 17.8C18.7 20.7 16.3 23 13.4 23H11.1C8.2 23 5.8 20.7 5.8 17.8C5.8 15.3 7.4 13.2 9.6 12.5C10 12.4 10.3 12.8 10.1 13.1C9.6 14.1 9.6 15.4 10.4 16.3C11.6 17.6 13.7 17.6 14.9 16.3C16 15.2 16 13.5 14.9 12.4C14.4 11.9 14.1 11.2 14.1 10.5C14.1 8.5 15.3 6.9 16.4 5.5C16.6 5.2 16.8 5.4 16.9 5.7Z" fill="rgba(255,250,240,0.92)"/>
</svg>
