<svg width="880" height="560" viewBox="0 0 880 560" fill="none" xmlns="http://www.w3.org/2000/svg">
  <defs>
    <linearGradient id="bg" x1="0" y1="0" x2="0" y2="560" gradientUnits="userSpaceOnUse">
      <stop stop-color="#FFF6E3"/>
      <stop offset="1" stop-color="#FFFFFF"/>
    </linearGradient>
    <linearGradient id="accent" x1="260" y1="160" x2="620" y2="430" gradientUnits="userSpaceOnUse">
      <stop stop-color="#E1572A" stop-opacity="0.34"/>
      <stop offset="1" stop-color="#2F8F57" stop-opacity="0.22"/>
    </linearGradient>
  </defs>
  <rect x="0" y="0" width="880" height="560" rx="40" fill="url(#bg)"/>
  <path d="M193 413C246 360 303 318 372 290C442 261 516 252 590 258C664 264 729 287 795 334" stroke="url(#accent)" stroke-width="18" stroke-linecap="round"/>
  <rect x="246" y="150" width="388" height="280" rx="26" fill="#FBF3E4" stroke="rgba(20, 18, 16, 0.12)" stroke-width="2"/>
  <rect x="276" y="190" width="328" height="18" rx="9" fill="rgba(20, 18, 16, 0.10)"/>
  <rect x="276" y="226" width="270" height="14" rx="7" fill="rgba(20, 18, 16, 0.08)"/>
  <rect x="276" y="254" width="296" height="14" rx="7" fill="rgba(20, 18, 16, 0.08)"/>
  <rect x="276" y="282" width="210" height="14" rx="7" fill="rgba(20, 18, 16, 0.08)"/>
  <rect x="276" y="330" width="142" height="44" rx="18" fill="rgba(225, 87, 42, 0.14)" stroke="rgba(225, 87, 42, 0.22)" stroke-width="2"/>
  <path d="M305 352H339" stroke="#C94922" stroke-width="6" stroke-linecap="round"/>
  <rect x="434" y="330" width="170" height="44" rx="18" fill="rgba(47, 143, 87, 0.10)" stroke="rgba(47, 143, 87, 0.22)" stroke-width="2"/>
  <path d="M461 352H511" stroke="#267447" stroke-width="6" stroke-linecap="round"/>
  <circle cx="670" cy="194" r="64" fill="rgba(225, 87, 42, 0.12)"/>
  <path d="M650 204C662 192 678 185 695 185C709 185 722 190 732 199" stroke="#C94922" stroke-width="6" stroke-linecap="round"/>
  <path d="M655 222C666 232 680 238 696 238C710 238 723 233 733 225" stroke="#C94922" stroke-width="6" stroke-linecap="round" stroke-opacity="0.55"/>
  <circle cx="210" cy="210" r="58" fill="rgba(47, 143, 87, 0.10)"/>
  <path d="M188 224C196 209 210 200 226 200C238 200 249 205 257 214" stroke="#267447" stroke-width="6" stroke-linecap="round"/>
</svg>
