<svg xmlns="http://www.w3.org/2000/svg" viewBox="0 0 900 600" role="img" aria-label="Restaurant illustration">
  <defs>
    <linearGradient id="g1" x1="0" x2="1" y1="0" y2="1">
      <stop offset="0" stop-color="#ffffff" stop-opacity="0.95"/>
      <stop offset="1" stop-color="#ffffff" stop-opacity="0.15"/>
    </linearGradient>
    <linearGradient id="g2" x1="0" x2="1" y1="1" y2="0">
      <stop offset="0" stop-color="#fb923c" stop-opacity="0.9"/>
      <stop offset="1" stop-color="#f97316" stop-opacity="0.35"/>
    </linearGradient>
    <filter id="shadow" x="-30%" y="-30%" width="160%" height="160%">
      <feDropShadow dx="0" dy="18" stdDeviation="18" flood-color="#020617" flood-opacity="0.35"/>
    </filter>
    <filter id="glow" x="-30%" y="-30%" width="160%" height="160%">
      <feGaussianBlur stdDeviation="10" result="b"/>
      <feColorMatrix in="b" type="matrix"
        values="1 0 0 0 0
                0 1 0 0 0
                0 0 1 0 0
                0 0 0 .55 0" result="c"/>
      <feMerge>
        <feMergeNode in="c"/>
        <feMergeNode in="SourceGraphic"/>
      </feMerge>
    </filter>
  </defs>

  <!-- Transparent background by default -->
  <g opacity="0.95">
    <!-- Soft blobs -->
    <path d="M555 115c98-52 226 6 241 114s-76 188-178 178-193-51-208-121 47-137 145-171z"
          fill="url(#g2)" opacity="0.22" filter="url(#glow)"/>
    <path d="M356 404c-98 60-234 7-246-109s71-204 178-194 213 60 229 135-63 122-161 168z"
          fill="#60a5fa" opacity="0.12" filter="url(#glow)"/>

    <!-- Plate -->
    <g transform="translate(340 110)" filter="url(#shadow)">
      <circle cx="210" cy="190" r="165" fill="url(#g1)" opacity="0.50"/>
      <circle cx="210" cy="190" r="122" fill="none" stroke="#ffffff" stroke-opacity="0.55" stroke-width="10"/>
      <circle cx="210" cy="190" r="74" fill="none" stroke="#ffffff" stroke-opacity="0.30" stroke-width="8"/>
    </g>

    <!-- Fork -->
    <g transform="translate(160 165)" opacity="0.92" filter="url(#shadow)">
      <path d="M80 10c7 0 12 6 12 13v72c0 18-8 30-18 35v225c0 8-6 14-14 14s-14-6-14-14V130c-10-5-18-17-18-35V23c0-7 6-13 13-13 6 0 12 5 12 12v64h8V22c0-7 6-12 13-12s13 5 13 12v64h8V22c0-7 6-12 13-12z"
            fill="#ffffff" fill-opacity="0.58"/>
      <path d="M66 118v238" stroke="#f97316" stroke-opacity="0.55" stroke-width="10" stroke-linecap="round"/>
      <path d="M46 20v70M58 20v70M70 20v70M82 20v70" stroke="#f97316" stroke-opacity="0.38" stroke-width="6" stroke-linecap="round"/>
    </g>

    <!-- Knife -->
    <g transform="translate(650 140)" opacity="0.90" filter="url(#shadow)">
      <path d="M72 12c18 0 32 22 32 48 0 38-18 78-38 100v252c0 8-6 14-14 14s-14-6-14-14V18c8-4 16-6 34-6z"
            fill="#ffffff" fill-opacity="0.52"/>
      <path d="M52 110v290" stroke="#fb923c" stroke-opacity="0.55" stroke-width="10" stroke-linecap="round"/>
      <path d="M78 28c8 12 10 29 7 45-4 22-16 44-31 63" fill="none" stroke="#fb923c" stroke-opacity="0.28" stroke-width="8" stroke-linecap="round"/>
    </g>

    <!-- Steam -->
    <g transform="translate(420 80)" opacity="0.55">
      <path d="M70 160c22-22 14-44-2-62-18-20-24-40 4-70" fill="none" stroke="#ffffff" stroke-opacity="0.6" stroke-width="8" stroke-linecap="round"/>
      <path d="M120 158c22-22 14-44-2-62-18-20-24-40 4-70" fill="none" stroke="#ffffff" stroke-opacity="0.5" stroke-width="8" stroke-linecap="round"/>
      <path d="M170 160c22-22 14-44-2-62-18-20-24-40 4-70" fill="none" stroke="#ffffff" stroke-opacity="0.55" stroke-width="8" stroke-linecap="round"/>
    </g>
  </g>
</svg>
